<svg xmlns="http://www.w3.org/2000/svg" viewBox="0 0 214 139" width="214" height="139">
	<style>
		tspan { white-space:pre }
		.txt0 { font-size: 36px;line-height: 26px;fill: #e8e8e8;font-family: "Aleo";text-anchor: middle } 
		.shp1 { fill: #333333 } 
		.shp2 { fill: #5474fd } 
	</style>
	<g id="Search">
		<text id="Search Places " style="transform: matrix(1,0,0,1,107,138)" >
			<tspan x="0" y="0" class="txt0">Search Places</tspan>
		</text>
		<path id="Ellipse 1" class="shp1" d="M58,49c0,26.51 21.49,48 48,48c26.51,0 48,-21.49 48,-48c0,-26.51 -21.49,-48 -48,-48c-26.51,0 -48,21.49 -48,48z" />
		<path id="" class="shp2" d="M134.27 74.81L131.31 77.77L115 61.45C114.06 62.3 113.03 63.05 111.91 63.7C110.78 64.36 109.61 64.92 108.39 65.39C107.17 65.86 105.88 66.21 104.52 66.45C103.16 66.68 101.83 66.8 100.52 66.8C97.33 66.8 94.35 66.19 91.59 64.97C88.82 63.75 86.4 62.11 84.34 60.05C82.28 57.99 80.66 55.57 79.49 52.8C78.32 50.04 77.73 47.11 77.73 44.02C77.73 40.83 78.32 37.85 79.49 35.09C80.66 32.32 82.28 29.91 84.34 27.84C86.4 25.78 88.82 24.17 91.59 22.99C94.35 21.82 97.33 21.23 100.52 21.23C103.61 21.23 106.54 21.82 109.3 22.99C112.07 24.17 114.48 25.78 116.55 27.84C118.61 29.91 120.25 32.32 121.47 35.09C122.69 37.85 123.3 40.83 123.3 44.02C123.3 45.33 123.18 46.67 122.95 48.02C122.71 49.38 122.36 50.67 121.89 51.89C121.42 53.11 120.86 54.28 120.2 55.41C119.55 56.53 118.8 57.56 117.95 58.5L134.27 74.81L134.27 74.81ZM80.12 44.02C80.12 46.83 80.64 49.45 81.67 51.89C82.7 54.33 84.15 56.49 86.03 58.36C87.91 60.24 90.09 61.71 92.57 62.79C95.05 63.87 97.7 64.41 100.52 64.41C103.33 64.41 105.95 63.87 108.39 62.79C110.83 61.71 112.98 60.24 114.86 58.36C116.73 56.49 118.21 54.33 119.29 51.89C120.37 49.45 120.91 46.83 120.91 44.02C120.91 41.2 120.37 38.56 119.29 36.07C118.21 33.59 116.73 31.41 114.86 29.53C112.98 27.66 110.83 26.2 108.39 25.17C105.95 24.14 103.33 23.62 100.52 23.62C97.7 23.62 95.05 24.14 92.57 25.17C90.09 26.2 87.91 27.66 86.03 29.53C84.15 31.41 82.7 33.59 81.67 36.07C80.64 38.56 80.12 41.2 80.12 44.02L80.12 44.02Z" />
	</g>
</svg>